<svg id="logosandtypes_com" xmlns="http://www.w3.org/2000/svg" viewBox="0 0 150 150"><path fill="none" d="M0 0h150v150H0z"/><path fill="#AA1D37" d="M18.87 128.47c1.25-5.39 10.16-7.15 13.8-7.65 11.04-1.63 22.08.88 32.86-2.51 2.01-.63 4.01-1.51 5.9-2.38 10.54-5.52 23.58-16.56 34.49-19.69 11.16-3.26 21.7-1.51 32.86-3.14 3.64-.5 9.91-2.13 11.29-7.53V74.03c-1.25 5.39-8.91 7.02-12.54 7.53-11.04 1.63-21.7-.13-32.86 3.14-10.91 3.14-23.96 14.3-34.49 19.69-1.88 1-3.89 1.76-5.9 2.38-11.04 3.64-21.7.88-32.86 2.51-3.64.5-11.16 1.76-12.54 7.02-.01 0-.01 12.17-.01 12.17zM137.4 57.73c-11.04 1.63-21.7-.13-32.86 3.14C93.63 64 80.58 75.16 70.05 80.56c-.25.13-.38.25-.63.25v12.04c.63-.25 1.25-.63 1.88-.88 10.54-5.52 23.58-16.56 34.49-19.69 11.16-3.26 21.7-1.51 32.86-3.14 3.64-.5 9.91-2.13 11.29-7.53V50.08c-1.25 5.39-8.9 7.15-12.54 7.65zM137.4 33.77c-11.04 1.63-21.7-.13-32.86 3.14-10.91 3.14-23.96 14.3-34.49 19.69-.25.13-.38.25-.63.25v12.04c.63-.25 1.25-.63 1.88-.88 10.54-5.52 23.58-16.56 34.49-19.69 11.16-3.26 21.7-1.51 32.86-3.14 3.64-.5 9.91-2.13 11.29-7.53v-11.4c-1.25 5.39-8.9 7.02-12.54 7.52z"/><path fill="#00539B" d="M63.15 22.73H7.71c-4.26 0-7.78 3.14-7.78 7.02V89.7c0 3.89 3.51 7.02 7.78 7.02h55.44c4.26 0 7.78-3.14 7.78-7.02V29.76c-.01-3.89-3.52-7.03-7.78-7.03zm-3.14 63.22H45.34V66.01H25.52v19.94H10.84V33.02h14.68v18.69h19.82V33.02h14.68v52.93z"/></svg>